<?xml version="1.0" encoding="UTF-8" standalone="no"?>
<!-- Created with Inkscape (http://www.inkscape.org/) -->

<svg
   width="43.615231"
   height="52.672878"
   viewBox="0 0 11.539863 13.936366"
   version="1.1"
   id="svg146781"
   xmlns:xlink="http://www.w3.org/1999/xlink"
   xmlns="http://www.w3.org/2000/svg"
   xmlns:svg="http://www.w3.org/2000/svg">
  <defs
     id="defs146778">
    <linearGradient
       xlink:href="#linearGradient366890"
       id="linearGradient381364"
       gradientUnits="userSpaceOnUse"
       x1="56.550026"
       y1="93.965248"
       x2="115.6933"
       y2="165.26576"
       gradientTransform="matrix(0.21917874,0,0,0.21917874,-12.16355,-18.756196)" />
    <linearGradient
       id="linearGradient366890">
      <stop
         style="stop-color:#00e3e9;stop-opacity:0"
         offset="0"
         id="stop366886" />
      <stop
         style="stop-color:#00a0fe;stop-opacity:1"
         offset="1"
         id="stop366888" />
    </linearGradient>
  </defs>
  <path
     id="path381344"
     style="fill:#0b0b0b;fill-opacity:1;fill-rule:nonzero;stroke:none;stroke-width:0.724887"
     d="M 4.1077597,3.4856506e-4 A 3.6700801,3.6700801 0 0 0 3.7114014,0.02722031 V 1.9035914 A 1.3192962,1.3192962 0 0 0 5.0307007,3.2228909 H 7.8010742 A 3.6700801,3.6700801 0 0 0 4.1077597,3.4856506e-4 Z M 4.3050583e-8,0.00913355 V 10.14805 H 1.3916463 A 1.7397312,1.7397312 0 0 0 3.1310749,8.4086208 V 2.0389837 A 2.0296861,2.0296861 0 0 0 1.1017416,0.00913355 Z M 8.408789,0.00913355 V 2.0968613 A 1.1018298,1.1018298 0 0 0 9.5105304,3.198603 H 11.539864 V 1.1692695 A 1.15982,1.15982 0 0 0 10.380245,0.00913355 Z M 5.0307007,3.7784125 A 1.3192962,1.3192962 0 0 0 3.7114014,5.0977118 v 1.876888 A 3.6700801,3.6700801 0 0 0 7.8010742,3.7784125 Z m 5.1175173,0 A 1.7397312,1.7397312 0 0 0 8.4082723,5.518358 v 6.369637 a 2.0296861,2.0296861 0 0 0 2.0298507,2.02985 h 1.101741 V 3.7784125 Z M 7.4041992,6.9348091 A 3.6700801,3.6700801 0 0 0 3.7114014,10.157868 H 6.4817749 A 1.3192962,1.3192962 0 0 0 7.8010742,8.8385687 V 6.9616807 A 3.6700801,3.6700801 0 0 0 7.4041992,6.9348091 Z M 3.7114014,10.712873 A 3.6700801,3.6700801 0 0 0 7.8010742,13.90906 V 12.032172 A 1.3192962,1.3192962 0 0 0 6.4817749,10.712873 Z M 4.3050583e-8,10.728376 v 2.029333 A 1.15982,1.15982 0 0 0 1.1596192,13.917845 H 3.1315919 V 11.830117 A 1.1018298,1.1018298 0 0 0 2.0293335,10.728376 Z" />
</svg>
